<?xml version="1.0" standalone="no"?>
<!DOCTYPE svg PUBLIC "-//W3C//DTD SVG 20010904//EN"
 "http://www.w3.org/TR/2001/REC-SVG-20010904/DTD/svg10.dtd">
<svg version="1.0" xmlns="http://www.w3.org/2000/svg"
 width="700.000000pt" height="700.000000pt" viewBox="0 0 700.000000 700.000000"
 preserveAspectRatio="xMidYMid meet">
<metadata>
Created by potrace 1.14, written by Peter Selinger 2001-2017
</metadata>
<g transform="translate(0.000000,700.000000) scale(0.100000,-0.100000)"
fill="#000000" stroke="none">
<path d="M355 6981 c-77 -22 -129 -50 -183 -97 -76 -65 -133 -156 -159 -251
-13 -48 -15 -2299 -3 -2373 29 -169 149 -309 318 -373 l57 -21 1180 -1 1180 0
64 23 c162 58 277 186 315 350 11 49 13 262 12 1218 l-1 1159 -24 60 c-62 154
-162 251 -310 301 l-66 22 -1160 0 c-1075 1 -1164 -1 -1220 -17z"/>
<path d="M4227 6985 c-80 -22 -158 -67 -217 -125 -71 -70 -105 -127 -129 -221
-18 -71 -19 -124 -17 -1234 l2 -1160 23 -60 c58 -147 156 -243 301 -296 l65
-24 1180 0 1180 1 57 21 c140 53 243 153 301 294 l22 54 2 1165 c1 721 -1
1184 -7 1215 -35 178 -199 341 -379 375 -88 16 -2322 12 -2384 -5z"/>
<path d="M380 3126 c-175 -38 -325 -184 -365 -357 -13 -61 -15 -208 -15 -1212
0 -1075 2 -1146 19 -1202 28 -93 59 -144 125 -210 67 -67 119 -98 211 -126 57
-18 120 -19 1220 -18 l1160 0 68 24 c86 29 138 63 202 130 57 59 102 141 120
220 10 41 13 315 13 1189 0 625 -5 1157 -9 1183 -14 75 -71 183 -125 239 -59
60 -107 92 -189 125 l-60 24 -1160 1 c-849 1 -1175 -2 -1215 -10z"/>
<path d="M4288 3135 c-2 -2 -19 -5 -39 -8 -20 -2 -71 -21 -113 -41 -138 -66
-238 -194 -264 -336 -4 -19 -7 -557 -7 -1195 0 -933 3 -1168 13 -1200 57 -174
183 -295 352 -339 84 -22 2306 -23 2398 -1 91 22 159 60 228 129 69 69 107
137 129 228 21 89 22 2315 1 2393 -45 167 -159 293 -313 347 l-68 23 -1157 1
c-636 1 -1158 0 -1160 -1z"/>
</g>
</svg>
